# xmcd
#
# Track frame offsets:
#	180
#	12910
#	24714
#	36984
#	48754
#	60716
#	71456
#	84443
#	96254
#	106241
#	116871
#	127462
#	140615
#	152548
#	164115
#
# Disc length: 2361 seconds
#
# Revision: 1
# Processed by: cddbd v1.5.2PL0 Copyright (c) Steve Scherf et al.
# Submitted via: audiograbber 1.83.01
#
DISCID=d409370f
DTITLE=Various Artist - Country Legends Vol.2 - CD1
DYEAR=2005
DGENRE=Country
TTITLE0=BILL MOUNCE - I Found A New Baby
TTITLE1=FLOYD TILLMAN - Drivin' Nails In My Coffin
TTITLE2=BOB WILLS - Brain Cloudy Blues
TTITLE3=BILLY HUGHES - Cocaine Blues
TTITLE4=ROY ACUFF - Blue Eyes Crying In The Rain
TTITLE5=THE BUCHANAN BROTHERS - High Tempered Mama
TTITLE6=CURLEY WILLIAMS - Georgia Boogie
TTITLE7=JACK RIVERS - Dear Oakie
TTITLE8=DAN PICKETT - Baby Don't You Want To Go
TTITLE9=HANK WILLIAMS - Why Don't You Love Me
TTITLE10=HANK WILLIAMS - Moanin' The Blues 
TTITLE11=LEFTY FRIZZELL - If You've Got The Money
TTITLE12=BILL STRENGTH - Black Coffee Blues
TTITLE13="TENNESSEE" ERNIE FORD - Shotgun Boogie
TTITLE14=HANK WILLIAMS - Hey Good Lookin'
EXTD=
EXTT0=
EXTT1=
EXTT2=
EXTT3=
EXTT4=
EXTT5=
EXTT6=
EXTT7=
EXTT8=
EXTT9=
EXTT10=
EXTT11=
EXTT12=
EXTT13=
EXTT14=
PLAYORDER=
